<?xml version="1.0" encoding="iso-8859-1"?>
<!-- Generator: Adobe Illustrator 19.0.0, SVG Export Plug-In . SVG Version: 6.00 Build 0)  -->
<svg version="1.1" id="Layer_1" xmlns="http://www.w3.org/2000/svg" xmlns:xlink="http://www.w3.org/1999/xlink" x="0px" y="0px"
	 viewBox="0 0 279.809 279.809" style="enable-background:new 0 0 279.809 279.809;" xml:space="preserve">
<g>
	<path style="fill:#EFC75E;" d="M139.904,0c77.27,0,139.891,62.639,139.891,139.909c0,77.261-62.621,139.9-139.891,139.9
		c-77.261,0-139.891-62.639-139.891-139.9C0.013,62.639,62.643,0,139.904,0z"/>
	<path style="fill:#D9B455;" d="M139.904,60.433c50.344,0,91.63,38.801,95.874,88.217c0.236-2.765,0.385-5.557,0.385-8.392
		c0-53.363-43.089-96.601-96.259-96.601c-53.161,0-96.259,43.238-96.259,96.601c0,2.835,0.158,5.627,0.385,8.392
		C48.274,99.226,89.569,60.433,139.904,60.433z"/>
	<path style="fill:#E2574C;" d="M262.372,167.5c-5.986,1.61-12.26,2.87-18.709,3.71c-6.432,0.718-13.004,1.006-19.584,0.858
		c-6.546-0.219-13.056-0.954-19.383-2.03l-4.682-0.954l-2.319-0.499l-2.275-0.578l-4.489-1.199l-4.358-1.365l-2.135-0.683
		l-2.065-0.77l-4.087-1.523c-2.617-1.129-5.216-2.17-7.622-3.317l-3.535-1.741l-3.369-1.741c-2.126-1.216-4.235-2.31-6.108-3.483
		l-5.277-3.317l-4.358-3.063l-1.881-1.313l-1.593-1.251l-2.529-1.969l-1.558-1.234l2.03,0.464l3.159,0.7l2.004,0.446l2.301,0.394
		l5.408,0.919l6.449,0.77c2.319,0.271,4.787,0.359,7.421,0.543l4.052,0.14l4.27,0.07c2.914,0,5.951-0.175,9.127-0.298l4.822-0.429
		l2.477-0.219l2.511-0.324l5.137-0.718l5.242-0.971l2.687-0.516l2.687-0.63l5.461-1.33c7.289-2.03,14.789-4.577,22.262-7.797
		c7.438-3.264,14.85-7.123,22.043-11.569c4.935-3.115,9.705-6.589,14.369-10.204c-4.183-18.832-12.181-36.185-23.111-51.315
		c-1.995,4.9-4.288,9.906-7.071,14.876c-3.089,5.364-6.624,10.72-10.606,15.857c-4.034,5.058-8.48,9.915-13.24,14.439
		c-4.795,4.48-9.915,8.567-15.148,12.269l-3.982,2.634l-1.986,1.295l-2.021,1.181l-4.017,2.345l-4.043,2.1l-2.004,1.041l-2.004,0.91
		l-3.964,1.829c-2.652,1.041-5.224,2.135-7.745,3.045l-3.737,1.269l-3.605,1.146c-2.371,0.648-4.629,1.365-6.782,1.864l-6.073,1.383
		l-5.251,0.919l-2.266,0.376l-2.004,0.254l-3.177,0.394l-2.31,0.271l-0.131-0.105l2.039-1.278l2.73-1.741l1.733-1.111l1.908-1.33
		l4.472-3.177l5.102-4.017c1.838-1.453,3.64-3.142,5.644-4.857l2.967-2.765l3.063-2.975c2.056-2.065,4.087-4.323,6.248-6.668
		l3.107-3.71l1.61-1.916l1.54-2.004l3.124-4.139l3.019-4.393l1.531-2.258l1.453-2.345l2.923-4.804
		c3.71-6.598,7.211-13.704,10.221-21.265c2.94-7.569,5.452-15.533,7.412-23.759c1.278-5.688,2.196-11.49,2.932-17.327
		c-15.69-9.993-33.49-16.898-52.601-19.978c2.039,4.865,3.955,10.028,5.504,15.498c1.619,5.986,2.879,12.251,3.71,18.701
		c0.726,6.423,1.015,13.004,0.866,19.584c-0.236,6.546-0.963,13.056-2.03,19.383l-0.954,4.682l-0.499,2.328l-0.586,2.258
		l-1.19,4.498l-1.365,4.358l-0.683,2.135l-0.77,2.065l-1.523,4.087c-1.129,2.617-2.17,5.216-3.325,7.622l-1.733,3.535l-1.741,3.369
		l-3.483,6.099l-3.317,5.286l-3.063,4.358l-1.321,1.881l-1.243,1.593l-1.986,2.529l-1.496,1.916l-0.096-0.088l0.534-2.345
		l0.709-3.142l0.446-2.013l0.403-2.293l0.91-5.417l0.77-6.441c0.271-2.328,0.359-4.804,0.543-7.438l0.149-4.034l0.061-4.27
		c0-2.923-0.175-5.951-0.289-9.127l-0.42-4.822l-0.219-2.494l-0.324-2.494l-0.718-5.146l-0.971-5.251l-0.516-2.669l-0.621-2.687
		l-1.339-5.469c-2.039-7.281-4.585-14.78-7.806-22.253c-3.264-7.438-7.123-14.85-11.551-22.052
		c-3.124-4.927-6.598-9.696-10.212-14.36c-18.826,4.188-36.179,12.186-51.3,23.107c4.892,2.004,9.888,4.297,14.85,7.062
		c5.373,3.098,10.72,6.633,15.857,10.597c5.067,4.052,9.923,8.497,14.448,13.249c4.48,4.804,8.567,9.915,12.286,15.139l2.617,3.982
		l1.295,2.004l1.19,2.013l2.336,4.017l2.109,4.034l1.024,2.004l0.919,2.013l1.82,3.964c1.041,2.652,2.135,5.216,3.045,7.745
		l1.269,3.728l1.146,3.605c0.648,2.371,1.365,4.629,1.864,6.782l1.383,6.082l0.919,5.251l0.385,2.258l0.245,2.004l0.394,3.177
		l0.263,2.258l-1.356-2.153l-1.724-2.73l-1.111-1.741l-1.348-1.899l-3.168-4.48l-4.025-5.093l-4.857-5.644l-2.765-2.958
		l-2.975-3.063c-2.048-2.065-4.323-4.087-6.659-6.257l-3.702-3.107l-1.916-1.61l-2.004-1.54l-4.148-3.124l-4.402-3.01l-2.258-1.54
		l-2.345-1.453l-4.804-2.923c-6.598-3.71-13.704-7.211-21.265-10.221c-7.552-2.923-15.524-5.434-23.75-7.386
		c-5.636-1.278-11.376-2.188-17.152-2.914C12.081,80.298,5.141,98.08,2.017,117.191c4.857-2.039,9.993-3.938,15.445-5.478
		c5.986-1.628,12.251-2.888,18.701-3.728c6.441-0.718,13.021-1.006,19.584-0.858c6.563,0.236,13.056,0.954,19.401,2.03l4.664,0.954
		l2.328,0.499l2.275,0.595l4.498,1.181l4.34,1.365l2.135,0.683l2.083,0.77l4.087,1.523c2.608,1.129,5.198,2.17,7.622,3.317
		l3.535,1.741l3.352,1.741c2.135,1.216,4.244,2.31,6.117,3.483l5.286,3.317l4.358,3.063l1.873,1.313l1.601,1.251l2.511,1.986
		l2.048,1.61v0.035l-2.546-0.578l-3.159-0.7l-2.004-0.464l-2.301-0.394l-5.408-0.91l-6.449-0.77
		c-2.319-0.271-4.787-0.359-7.421-0.543l-4.052-0.158l-4.27-0.053c-2.905,0-5.951,0.175-9.127,0.289l-4.822,0.411l-2.476,0.236
		l-2.511,0.324l-5.128,0.7l-5.251,0.971l-2.687,0.534l-2.687,0.613l-5.461,1.33c-7.289,2.048-14.789,4.603-22.262,7.814
		c-7.438,3.264-14.841,7.123-22.035,11.551c-4.97,3.142-9.757,6.642-14.439,10.273c4.156,18.88,12.155,36.285,23.085,51.45
		c2.013-4.953,4.34-10.028,7.158-15.06c3.089-5.382,6.624-10.72,10.606-15.857c4.034-5.058,8.48-9.915,13.24-14.456
		c4.795-4.463,9.915-8.55,15.148-12.269l3.982-2.617l1.986-1.295l2.021-1.181l4.025-2.345l4.034-2.118l2.004-1.024l2.004-0.919
		l3.955-1.811c2.652-1.041,5.224-2.135,7.745-3.045l3.737-1.269l3.614-1.146c2.363-0.648,4.62-1.374,6.773-1.864l6.073-1.383
		l5.251-0.919l2.266-0.394l2.004-0.236l3.177-0.394l2.599-0.306l0.009,0.035l-2.214,1.383l-2.73,1.724l-1.733,1.111l-1.908,1.356
		l-4.472,3.177l-5.102,4.017c-1.829,1.453-3.64,3.124-5.644,4.857l-2.958,2.765l-3.072,2.975c-2.056,2.065-4.078,4.323-6.248,6.668
		l-3.107,3.693l-1.61,1.934l-1.54,2.004l-3.115,4.139l-3.028,4.393l-1.531,2.258l-1.453,2.345l-2.923,4.804
		c-3.71,6.598-7.211,13.704-10.221,21.265c-2.94,7.569-5.452,15.533-7.403,23.759c-1.313,5.784-2.231,11.691-2.975,17.624
		c15.734,10.028,33.586,16.942,52.768,20.013c-2.1-4.97-4.052-10.238-5.636-15.83c-1.619-5.986-2.879-12.251-3.71-18.701
		c-0.726-6.441-1.015-13.021-0.866-19.584c0.236-6.546,0.963-13.056,2.03-19.383l0.954-4.682l0.499-2.328l0.586-2.275l1.19-4.498
		l1.365-4.34l0.683-2.135l0.77-2.065l1.523-4.087c1.129-2.617,2.17-5.216,3.325-7.622l1.733-3.535l1.741-3.369
		c1.225-2.135,2.31-4.235,3.483-6.099l3.317-5.294l3.063-4.34l1.321-1.881l1.243-1.61l1.986-2.512l1.61-2.048l0.009,0.105
		l-0.551,2.441l-0.709,3.168l-0.446,2.013l-0.394,2.293l-0.91,5.417l-0.77,6.441c-0.271,2.328-0.359,4.787-0.543,7.421l-0.149,4.052
		l-0.061,4.27c0,2.923,0.175,5.951,0.289,9.127l0.42,4.822l0.219,2.477l0.333,2.512l0.718,5.128l0.963,5.251l0.516,2.686
		l0.621,2.687l1.339,5.469c2.039,7.281,4.585,14.78,7.806,22.253c3.264,7.438,7.123,14.85,11.551,22.035
		c3.185,5.032,6.729,9.888,10.414,14.631c18.858-4.218,36.237-12.26,51.368-23.251c-4.97-2.013-10.072-4.349-15.13-7.167
		c-5.373-3.098-10.711-6.633-15.857-10.615c-5.067-4.034-9.923-8.48-14.448-13.231c-4.48-4.804-8.567-9.915-12.277-15.156
		l-2.625-3.982l-1.295-1.986l-1.181-2.013l-2.345-4.034l-2.109-4.034l-1.024-2.004l-0.919-2.004l-1.82-3.964
		c-1.041-2.652-2.135-5.216-3.045-7.745l-1.269-3.728l-1.146-3.623c-0.648-2.363-1.365-4.612-1.864-6.764l-1.383-6.082l-0.919-5.251
		l-0.385-2.258l-0.245-2.004l-0.394-3.203l-0.271-2.345l0.184,0.035l1.199,1.916l1.733,2.739l1.111,1.741l1.339,1.899l3.177,4.48
		l4.017,5.093c1.453,1.846,3.133,3.64,4.865,5.644l2.757,2.975l2.975,3.063c2.065,2.048,4.332,4.087,6.668,6.239l3.71,3.107
		l1.916,1.61l2.004,1.54l4.139,3.124l4.393,3.028l2.266,1.523l2.336,1.453l4.822,2.923c6.581,3.71,13.695,7.211,21.247,10.221
		c7.569,2.94,15.542,5.452,23.759,7.403c5.741,1.295,11.595,2.223,17.484,2.967c9.958-15.708,16.81-33.516,19.856-52.645
		C273.022,164.026,267.852,165.942,262.372,167.5z M139.931,139.716l0.026-0.088l0.053,0.105l-0.07,0.088
		C139.939,139.821,139.931,139.716,139.931,139.716z M139.957,139.891l-0.009-0.035l0.096-0.07l0.053,0.087L139.957,139.891z"/>
	<g>
		<path style="fill:#CC4E45;" d="M103.326,57.423c2.363,2.538,4.594,5.154,6.747,7.832c8.987-2.94,18.534-4.62,28.467-4.76
			c-1.566-5.426-3.483-10.947-5.679-16.495c-12.12,0.884-23.592,4.017-34.058,8.987C100.333,54.457,101.873,55.892,103.326,57.423z
			 M222.364,103.33l-1.628,1.409c5.679,8.821,9.932,18.631,12.505,29.114l2.555-0.989c-0.919-12.111-4.069-23.566-9.022-34.023
			C225.321,100.346,223.886,101.886,222.364,103.33z M171.6,65.903c9.153,3.203,17.677,7.718,25.334,13.389
			c2.039-3.894,3.973-7.946,5.793-12.146c-8.882-7.692-19.164-13.73-30.435-17.773c0.044,2.118,0.123,4.235,0.07,6.362
			C172.23,59.138,171.967,62.534,171.6,65.903z M43.942,146.664l0.088,1.986l0.289-2.126L43.942,146.664z M55.747,107.128
			l1.733,0.123c5.697-9.486,13.004-17.869,21.501-24.87c-3.737-1.943-7.596-3.78-11.604-5.522
			c-7.683,8.847-13.748,19.094-17.834,30.33C49.543,107.189,55.747,107.128,55.747,107.128z"/>
	</g>
</g>
<g>
</g>
<g>
</g>
<g>
</g>
<g>
</g>
<g>
</g>
<g>
</g>
<g>
</g>
<g>
</g>
<g>
</g>
<g>
</g>
<g>
</g>
<g>
</g>
<g>
</g>
<g>
</g>
<g>
</g>
</svg>
